<svg width="121" height="33" viewBox="0 0 121 33" fill="none" xmlns="http://www.w3.org/2000/svg">
<path d="M19.231 15.54C16.3563 15.652 13.4817 15.9787 10.607 16.52C7.90032 17.0427 5.68832 17.6493 3.97099 18.34C2.19765 19.068 1.33899 19.74 1.39499 20.356C1.43232 20.8227 2.05765 21.0747 3.27099 21.112C4.35365 21.1307 5.77232 20.9813 7.52699 20.664C9.24432 20.328 10.9523 19.8893 12.651 19.348C14.4617 18.7693 15.9363 18.1627 17.075 17.528C18.3443 16.8187 19.063 16.156 19.231 15.54ZM2.79499 17.668C4.60565 16.8653 7.25632 16.184 10.747 15.624C13.9017 15.12 16.5897 14.868 18.811 14.868C17.9897 14.42 16.6457 13.916 14.779 13.356C12.8377 12.7213 11.4097 12.2267 10.495 11.872C8.92699 11.256 7.77899 10.6493 7.05099 10.052C6.17365 9.30533 5.89365 8.54933 6.21099 7.784C6.75232 6.57067 7.99365 5.35733 9.93499 4.144C11.8763 2.93067 14.0883 1.94133 16.571 1.176C19.1843 0.354667 21.5083 -0.0279996 23.543 0.0279996C24.159 0.0466672 24.635 0.102668 24.971 0.196001C25.419 0.308 25.7923 0.513333 26.091 0.812C26.707 1.46533 26.791 2.64133 26.343 4.34C26.0817 5.31067 25.5217 6.73867 24.663 8.624C24.103 9.81867 23.823 10.584 23.823 10.92C23.8977 11.144 23.767 11.2187 23.431 11.144C22.983 11.032 22.507 10.752 22.003 10.304C21.387 9.78133 21.1163 9.25867 21.191 8.736C21.2283 8.568 21.3963 8.25067 21.695 7.784C21.8817 7.504 22.2177 7.028 22.703 6.356C23.5243 5.25467 24.0843 4.46133 24.383 3.976C24.8683 3.136 25.0363 2.56667 24.887 2.268C24.383 1.29733 22.9923 1.05467 20.715 1.54C18.755 1.96933 16.5523 2.8 14.107 4.032C11.7737 5.22667 10.1123 6.33733 9.12299 7.364C8.67499 7.812 8.92699 8.27867 9.87899 8.764C10.4577 9.06267 11.7083 9.52933 13.631 10.164C15.199 10.668 16.3657 11.06 17.131 11.34C18.419 11.844 19.4177 12.3387 20.127 12.824C20.911 13.3653 21.4243 13.972 21.667 14.644C22.955 14.5693 24.2803 14.532 25.643 14.532C26.0723 14.532 26.371 14.6347 26.539 14.84C26.6883 15.0267 26.651 15.1387 26.427 15.176C24.8963 15.232 23.3563 15.2973 21.807 15.372C21.8257 16.156 21.5083 16.9493 20.855 17.752C20.2017 18.536 19.287 19.2547 18.111 19.908C16.3377 20.86 14.303 21.6347 12.007 22.232C9.74832 22.8293 7.65765 23.1373 5.73499 23.156C3.66299 23.1747 2.11365 22.8573 1.08699 22.204C0.134985 21.5693 -0.191682 20.832 0.106985 19.992C0.424318 19.096 1.32032 18.3213 2.79499 17.668Z" fill="black"/>
<path d="M36.5687 14.168C35.598 14.616 34.6273 14.728 33.6567 14.504C33.022 15.4933 32.3033 16.4827 31.5007 17.472C30.3807 18.8347 29.382 19.908 28.5047 20.692C27.422 21.644 26.554 22.12 25.9007 22.12C25.266 22.12 24.706 21.98 24.2207 21.7C23.7167 21.42 23.4367 21.0653 23.3807 20.636C23.25 19.6467 23.5393 18.3587 24.2487 16.772C24.8647 15.428 25.6487 14.1307 26.6007 12.88C27.534 11.6667 28.2433 10.9947 28.7287 10.864C28.99 10.7707 29.27 10.808 29.5687 10.976C29.8113 11.1067 30.0447 11.3213 30.2687 11.62C30.3993 11.7693 30.5113 11.9467 30.6047 12.152C30.6793 12.32 30.7167 12.404 30.7167 12.404L29.6247 13.72C29.102 14.336 28.346 15.4747 27.3567 17.136C26.274 19.0213 25.854 20.076 26.0967 20.3C26.3207 20.5053 26.8807 20.188 27.7767 19.348C28.5233 18.6573 29.3913 17.7147 30.3807 16.52C31.2207 15.4373 31.8647 14.5787 32.3127 13.944C31.454 13.3653 30.978 12.6467 30.8847 11.788C30.8287 11.2093 30.9593 10.724 31.2767 10.332C31.65 9.84667 32.2007 9.69733 32.9287 9.884C33.4513 10.0147 33.8807 10.2387 34.2167 10.556C34.7207 11.0227 34.898 11.62 34.7487 12.348C34.6927 12.6467 34.59 12.9453 34.4407 13.244C35.1313 13.636 36.0833 13.468 37.2967 12.74C37.8193 12.3293 38.1647 11.9933 38.3327 11.732C39.7513 12.236 40.4607 12.684 40.4607 13.076C40.4607 13.188 40.4047 13.3 40.2927 13.412C39.602 14.1773 38.9207 14.9613 38.2487 15.764C40.414 13.8973 42.0753 12.5907 43.2327 11.844C44.502 11.0227 45.3793 10.7333 45.8647 10.976C46.3313 11.2187 46.714 11.648 47.0127 12.264C47.3113 12.9733 47.274 13.5333 46.9007 13.944C46.826 14.0187 46.7233 14.14 46.5927 14.308C45.0993 15.9507 44.082 17.0893 43.5407 17.724C42.7007 18.6947 42.1593 19.404 41.9167 19.852C42.9993 19.2733 45.2953 17.556 48.8047 14.7C49.0287 14.532 49.2433 14.4853 49.4487 14.56C49.7287 14.6907 49.7847 14.8307 49.6167 14.98C44.2967 19.7587 41.3287 22.148 40.7127 22.148C40.4513 22.148 40.134 22.0453 39.7607 21.84C39.3873 21.616 39.098 21.28 38.8927 20.832C38.538 20.0107 39.1447 18.7227 40.7127 16.968C41.086 16.576 41.702 15.9507 42.5607 15.092C43.3633 14.308 43.9047 13.7667 44.1847 13.468C44.6327 12.964 44.8193 12.628 44.7447 12.46C44.5393 12.068 43.522 12.6467 41.6927 14.196C39.994 15.596 37.4273 17.9573 33.9927 21.28C33.582 21.7653 33.218 21.952 32.9007 21.84C32.5833 21.728 32.294 21.392 32.0327 20.832C31.902 20.552 31.958 20.2067 32.2007 19.796C32.3687 19.4973 32.8447 18.8627 33.6287 17.892C33.8527 17.612 34.03 17.3973 34.1607 17.248C34.9073 16.3333 35.71 15.3067 36.5687 14.168Z" fill="black"/>
<path d="M45.4996 27.188C45.1449 28.0093 44.9956 28.7093 45.0516 29.288C45.1262 29.7733 45.2569 29.9973 45.4436 29.96C45.6116 29.904 46.0969 29.288 46.8996 28.112C47.3476 27.4213 48.1129 26.2173 49.1956 24.5C49.9982 23.2307 50.5396 22.3813 50.8196 21.952C48.2436 23.464 46.4702 25.2093 45.4996 27.188ZM62.1596 14.98C60.7782 16.3053 59.3782 17.472 57.9596 18.48C56.6716 19.3947 55.5049 20.076 54.4596 20.524C53.4329 21.98 52.1636 23.9307 50.6516 26.376C49.6249 28.0373 48.8782 29.1853 48.4116 29.82C47.7022 30.828 47.0396 31.556 46.4236 32.004C45.7516 32.4893 45.1542 32.452 44.6316 31.892C44.1649 31.4067 43.8756 30.66 43.7636 29.652C43.6516 28.6067 43.7916 27.7107 44.1836 26.964C44.8182 25.676 45.9009 24.4067 47.4316 23.156C48.5142 22.26 49.9889 21.2333 51.8556 20.076C52.2102 19.6653 52.7702 18.9747 53.5356 18.004C54.3196 17.0147 54.9076 16.2867 55.2996 15.82C54.7022 16.3427 54.0862 16.8933 53.4516 17.472C51.5102 19.1707 50.1942 20.272 49.5036 20.776C48.4396 21.5413 47.7396 21.8027 47.4036 21.56C46.2649 20.7013 46.0316 19.5627 46.7036 18.144C47.7116 15.9973 48.9342 14.224 50.3716 12.824C51.7156 11.4987 52.9196 10.836 53.9836 10.836C55.1596 10.8547 56.0369 11.6947 56.6156 13.356C55.8129 14.0653 55.2716 14.3453 54.9916 14.196C55.1409 13.6733 55.1316 13.2907 54.9636 13.048C54.5902 12.488 53.5636 13.076 51.8836 14.812C51.1369 15.6147 50.4462 16.52 49.8116 17.528C49.2516 18.3867 48.9342 18.9933 48.8596 19.348C48.8409 19.4787 49.0742 19.3667 49.5596 19.012C49.8769 18.788 50.6049 18.228 51.7436 17.332C54.1329 15.4467 56.1956 13.86 57.9316 12.572L58.0436 12.46C58.7342 12.684 59.2756 12.908 59.6676 13.132C60.0596 13.3747 60.1902 13.5707 60.0596 13.72C58.5849 15.288 57.1849 16.94 55.8596 18.676C57.4276 17.7613 59.2569 16.436 61.3476 14.7C61.5716 14.532 61.7862 14.4853 61.9916 14.56C62.2716 14.6907 62.3276 14.8307 62.1596 14.98Z" fill="black"/>
<path d="M72.9457 10.92C75.727 11.2933 78.1537 11.0227 80.2257 10.108C82.1857 9.23067 83.567 7.896 84.3697 6.104C84.967 4.816 85.079 3.74267 84.7057 2.884C84.239 1.78267 83.007 1.26 81.0097 1.316C78.6764 1.39067 76.2497 1.63333 73.7297 2.044C71.8817 2.34267 69.5577 2.80933 66.7577 3.444C68.251 4.30267 69.147 5.56267 69.4457 7.224C69.707 8.81067 69.3897 10.5653 68.4937 12.488C68.7737 12.152 69.091 11.7787 69.4457 11.368C71.9657 8.4 73.991 6.16 75.5217 4.648C77.071 3.09867 78.1444 2.25867 78.7417 2.128C79.0964 2.03467 79.731 2.36133 80.6457 3.108C80.179 3.332 79.2084 4.2 77.7337 5.712C76.3897 7.09333 74.7937 8.82933 72.9457 10.92ZM65.8897 15.68C67.0844 13.888 67.859 12.18 68.2137 10.556C68.5124 9.13733 68.475 7.87733 68.1017 6.776C67.7844 5.78667 67.2337 5.04933 66.4497 4.564C65.703 4.116 64.9004 3.99467 64.0417 4.2C63.855 4.256 63.5097 4.06933 63.0057 3.64C62.5764 3.26667 62.1937 2.86533 61.8577 2.436C61.5217 2.00667 61.447 1.81067 61.6337 1.848C61.951 1.904 62.7817 1.85733 64.1257 1.708C64.947 1.61467 66.459 1.428 68.6617 1.148C71.4617 0.774667 73.5337 0.513334 74.8777 0.364C77.1924 0.121333 78.947 0 80.1417 0C81.5977 0 82.8017 0.14 83.7537 0.42C84.8924 0.756 85.723 1.288 86.2457 2.016C87.3097 3.54667 87.5524 5.16133 86.9737 6.86C86.3764 8.55867 85.0417 10.0613 82.9697 11.368C81.6817 12.152 80.0297 12.5627 78.0137 12.6C76.6697 12.6187 74.915 12.4507 72.7497 12.096C73.179 12.264 73.711 12.7493 74.3457 13.552C74.7377 14.0373 75.3724 14.9333 76.2497 16.24C77.2764 17.752 78.0697 18.872 78.6297 19.6C79.6004 20.8507 80.5244 21.8213 81.4017 22.512C82.4657 23.3707 83.5204 23.8747 84.5657 24.024C84.8084 24.08 84.8457 24.192 84.6777 24.36C82.755 25.816 81.047 26.1147 79.5537 25.256C78.9004 24.9013 78.1724 24.0987 77.3697 22.848C76.8844 22.12 76.1564 20.8507 75.1857 19.04C74.2897 17.3787 73.6177 16.1933 73.1697 15.484C72.4044 14.308 71.723 13.4867 71.1257 13.02C69.4457 14.98 67.6537 17.1733 65.7497 19.6C63.8457 22.0267 62.6417 23.6693 62.1377 24.528C62.0257 24.696 61.8297 24.6867 61.5497 24.5C61.2884 24.3507 60.999 24.08 60.6817 23.688C60.607 23.3893 60.9337 22.6613 61.6617 21.504C62.483 20.2347 63.8924 18.2933 65.8897 15.68Z" fill="black"/>
<path d="M88.7023 17.164C88.5343 17.3133 88.2823 17.528 87.9463 17.808C86.2103 19.3573 85.0249 20.356 84.3903 20.804C83.4009 21.532 82.7476 21.784 82.4303 21.56C81.3103 20.7013 81.0769 19.5627 81.7303 18.144C82.7569 15.9973 83.9796 14.224 85.3983 12.824C86.7609 11.4987 87.9743 10.836 89.0383 10.836C90.2143 10.8547 91.0916 11.6947 91.6703 13.356C90.8676 14.0653 90.3169 14.3453 90.0183 14.196C90.1676 13.6733 90.1583 13.2907 89.9903 13.048C89.6356 12.488 88.6183 13.076 86.9383 14.812C86.1916 15.6147 85.4916 16.52 84.8383 17.528C84.2969 18.3867 83.9889 18.9933 83.9143 19.348C83.8769 19.4787 84.1009 19.3667 84.5863 19.012C84.9223 18.788 85.6596 18.228 86.7983 17.332C89.1689 15.4653 91.2129 13.8973 92.9303 12.628L93.0703 12.46C94.4143 12.908 95.0863 13.328 95.0863 13.72C95.0863 13.832 95.0303 13.944 94.9183 14.056C92.3423 16.912 90.7836 18.844 90.2423 19.852C91.3249 19.2733 93.6209 17.556 97.1303 14.7C97.3543 14.532 97.5689 14.4853 97.7743 14.56C98.0543 14.6907 98.1103 14.8307 97.9423 14.98C92.6223 19.7587 89.6543 22.148 89.0383 22.148C88.7583 22.148 88.4409 22.0453 88.0863 21.84C87.7129 21.616 87.4236 21.28 87.2183 20.832C86.8636 20.0107 87.4703 18.7227 89.0383 16.968L89.7383 16.184L88.7023 17.164Z" fill="black"/>
<path d="M99.2187 12.208C99.5733 11.816 99.9187 11.424 100.255 11.032C101.169 9.968 102.019 8.988 102.803 8.092C100.003 8.036 97.7907 8.02667 96.1667 8.064C96.7827 8.26933 97.436 8.764 98.1267 9.548C98.892 10.444 99.256 11.3307 99.2187 12.208ZM107.955 8.204C106.312 9.73467 104.109 11.5827 101.347 13.748C101.16 13.9907 100.441 14.8027 99.1907 16.184C97.94 17.5653 96.68 19.1053 95.4107 20.804C97.2027 19.5347 99.8347 17.5093 103.307 14.728C103.512 14.5413 103.727 14.4853 103.951 14.56C104.212 14.6907 104.268 14.8307 104.119 14.98C98.1267 20.412 94.8227 23.128 94.2067 23.128C93.9453 23.128 93.656 23.044 93.3387 22.876C93.04 22.708 92.788 22.3907 92.5827 21.924C92.1907 21.196 92.9467 19.684 94.8507 17.388C95.9893 15.988 97.0907 14.672 98.1547 13.44C98.528 12.712 98.5373 11.9467 98.1827 11.144C97.884 10.4533 97.3707 9.81867 96.6427 9.24C95.952 8.68 95.2427 8.30667 94.5147 8.12C94.0293 7.98933 93.6093 7.79333 93.2547 7.532C92.7507 7.10267 92.7787 6.86933 93.3387 6.832C95.0747 6.81333 98.6307 6.776 104.007 6.72C106.825 3.64 108.673 2.00667 109.551 1.82C109.905 1.72667 110.54 2.044 111.455 2.772C112.089 3.31333 111.529 4.52667 109.775 6.412C109.681 6.50533 109.597 6.59867 109.523 6.692C113.107 6.65467 115.729 6.636 117.391 6.636C117.745 6.636 118.035 6.972 118.259 7.644C118.539 8.428 118.436 8.82 117.951 8.82C117.764 8.708 116.672 8.596 114.675 8.484C112.92 8.372 110.68 8.27867 107.955 8.204Z" fill="black"/>
<path d="M105.37 16.408C105.556 16.296 106.2 15.8293 107.302 15.008C108.552 14.0373 109.159 13.44 109.122 13.216C109.084 12.9733 108.907 12.908 108.59 13.02C108.272 13.132 107.946 13.356 107.61 13.692C106.788 14.5133 106.042 15.4187 105.37 16.408ZM104.642 17.584C104.175 18.4987 104.016 19.1053 104.166 19.404C104.352 19.7213 104.819 19.7587 105.566 19.516C106.312 19.2733 107.171 18.8067 108.142 18.116C109.15 17.4253 110.634 16.2867 112.594 14.7C112.818 14.532 113.032 14.4853 113.238 14.56C113.518 14.6907 113.574 14.8307 113.406 14.98C110.83 17.2947 108.683 19.0213 106.966 20.16C105.342 21.224 104.194 21.7187 103.522 21.644C102.271 21.476 101.478 20.9813 101.142 20.16C100.88 19.4693 101.104 18.424 101.814 17.024C102.43 15.792 103.214 14.672 104.166 13.664C105.174 12.5813 106.126 11.8067 107.022 11.34C107.88 10.892 108.618 10.752 109.234 10.92C109.887 11.144 110.288 11.648 110.438 12.432C110.55 13.3093 110.12 14.1213 109.15 14.868C108.123 15.652 107.218 16.268 106.434 16.716C105.986 16.9773 105.444 17.248 104.81 17.528C104.735 17.5653 104.679 17.584 104.642 17.584Z" fill="black"/>
<path d="M108.565 21.196C108.995 21.42 109.527 21.364 110.161 21.028C110.852 20.6173 111.337 20.0107 111.617 19.208C111.02 19.3013 110.432 19.488 109.853 19.768C109.312 20.0293 108.911 20.3 108.649 20.58C108.388 20.8787 108.36 21.084 108.565 21.196ZM115.089 18.816C114.809 19.7493 114.389 20.5613 113.829 21.252C113.139 22.1107 112.271 22.7173 111.225 23.072C110.068 23.4453 108.985 23.3707 107.977 22.848C107.1 22.344 106.605 21.7 106.493 20.916C106.475 20.3187 106.979 19.712 108.005 19.096C109.088 18.4427 110.385 17.9853 111.897 17.724C112.047 17.0707 112.271 16.0347 112.569 14.616C112.737 13.7947 112.84 13.3187 112.877 13.188C113.083 12.46 113.363 11.8627 113.717 11.396C114.203 10.7987 114.884 10.3507 115.761 10.052C116.359 9.84667 116.844 9.94933 117.217 10.36C117.46 10.64 117.693 11.144 117.917 11.872C118.029 12.2453 117.796 12.7027 117.217 13.244C116.825 13.5987 116.219 14.028 115.397 14.532C115.453 15.5213 115.444 16.436 115.369 17.276C116.975 16.3427 118.253 15.484 119.205 14.7C119.429 14.532 119.644 14.4853 119.849 14.56C120.129 14.6907 120.185 14.8307 120.017 14.98C117.964 16.9587 116.321 18.2373 115.089 18.816Z" fill="black"/>
</svg>
